<?xml version="1.0" encoding="UTF-8"?>
<svg width="51px" height="51px" viewBox="0 0 51 51" version="1.1" xmlns="http://www.w3.org/2000/svg" xmlns:xlink="http://www.w3.org/1999/xlink">
    <title>icon_error_51</title>
    <g id="Add-appliance-" stroke="none" stroke-width="1" fill="none" fill-rule="evenodd">
        <g id="dashboard-/-add-device-/-scan-error---entered-code" transform="translate(-162.000000, -108.000000)" fill="#B00020" fill-rule="nonzero">
            <g id="icon_error_51" transform="translate(162.000000, 108.000000)">
                <path d="M43.2,51 C41.9,51 40.6,50.5 39.7,49.5 L25.5,35.4 L11.4,49.5 C10.4,50.5 9.20000002,51 7.80000001,51 C6.5,51 5.19999999,50.5 4.3,49.5 L1.5,46.7 C0.5,45.8 -8.84708973e-16,44.5 -8.84708973e-16,43.2 C-8.84708973e-16,41.9 0.5,40.6 1.5,39.7 L15.6,25.6 L1.5,11.4 C0.5,10.4 -8.84708973e-16,9.20000002 -8.84708973e-16,7.80000001 C-8.84708973e-16,6.40000001 0.5,5.19999999 1.5,4.3 L4.3,1.5 C5.19999999,0.5 6.5,0 7.80000001,0 C9.10000003,0 10.4,0.5 11.3,1.5 L25.4,15.6 L39.6,1.5 C40.6,0.5 41.8,0 43.2,0 C44.5,0 45.8,0.5 46.7,1.5 L49.5,4.3 C50.5,5.19999999 51,6.5 51,7.80000001 C51,9.10000003 50.5,10.4 49.5,11.3 L35.4,25.5 L49.5,39.6 C50.4,40.5 51,41.8 51,43.1 C51,44.4 50.5,45.7 49.5,46.6 L46.7,49.4 C45.8,50.5 44.5,51 43.2,51 Z M25.5,29.7 L42.5,46.7 C42.7,47 43,47 43.2,47 C43.4,47 43.7,47 43.9,46.7 L46.7,43.9 C47,43.6 47,43.3 47,43.2 C47,43.1 47,42.7 46.7,42.5 L29.7,25.5 L46.7,8.49999998 C47,8.30000003 47,7.99999998 47,7.80000001 C47,7.60000003 47,7.3 46.7,7.10000001 L43.9,4.3 C43.6,3.99999998 43.3,3.99999998 43.2,3.99999998 C43.1,3.99999998 42.7,3.99999998 42.5,4.3 L25.5,21.3 L8.49999998,4.3 C8.29999998,3.99999998 7.99999998,3.99999998 7.80000001,3.99999998 C7.70000002,3.99999998 7.39999999,3.99999998 7.10000001,4.3 L4.3,7.10000001 C3.99999998,7.39999999 3.99999998,7.70000002 3.99999998,7.80000001 C3.99999998,7.99999998 3.99999998,8.30000003 4.3,8.49999998 L21.3,25.5 L4.3,42.5 C4.10000002,42.7 3.99999998,42.9 3.99999998,43.2 C3.99999998,43.4 3.99999998,43.7 4.3,43.9 L7.10000001,46.7 C7.39999999,47 7.70000002,47 7.80000001,47 C7.99999998,47 8.30000003,47 8.49999998,46.7 L25.5,29.7 Z" id="形状"></path>
            </g>
        </g>
    </g>
</svg>