<?xml version="1.0" encoding="UTF-8"?>
<svg width="64px" height="64px" viewBox="0 0 64 64" version="1.1" xmlns="http://www.w3.org/2000/svg" xmlns:xlink="http://www.w3.org/1999/xlink">
    <title>icon_general_64_firmware_update</title>
    <g id="icon_general_64_firmware_update" stroke="none" stroke-width="1" fill="none" fill-rule="evenodd">
        <path d="M32.105,12.9998 C40.783,12.9998 48.148,18.7128 50.647,26.5738 L42.578,26.5808 L42.58,28.5808 L54.579,28.5698 L54.574,16.5728 L52.574,16.5728 L52.578,26.0378 C49.844,17.3328 41.701,10.9998 32.105,10.9998 C21.757,10.9998 13.097,18.3688 11.094,28.1358 L13.157,28.1358 C15.127,19.4828 22.866,12.9998 32.105,12.9998 Z M32.105,51.909 C23.905,51.909 16.889,46.798 14.034,39.598 L22,39.596 L22,37.596 L10.001,37.599 L10,49.597 L12,49.597 L12.001,39.854 C15.024,48.044 22.882,53.909 32.105,53.909 C42.052,53.909 50.415,47.095 52.834,37.896 L50.771,37.896 C48.409,45.981 40.942,51.909 32.105,51.909 Z" id="形状" fill="#000000"></path>
    </g>
</svg>