<?xml version="1.0" encoding="UTF-8"?>
<svg width="48px" height="48px" viewBox="0 0 48 48" version="1.1" xmlns="http://www.w3.org/2000/svg" xmlns:xlink="http://www.w3.org/1999/xlink">
    <title>ic_aplnc_48_hood</title>
    <g id="ic_aplnc_48_hood" stroke="none" stroke-width="1" fill="none" fill-rule="evenodd">
        <g id="Group" transform="translate(5.000000, 8.000000)" fill="#000000" fill-rule="nonzero">
            <path d="M35.6300001,21.6000001 L27.9200001,21.6000001 L27.9200001,2.00000002 C27.9145454,1.15727411 27.232726,0.475454725 26.3900001,0.470000018 L11.61,0.470000018 C10.7672741,0.475454725 10.0854547,1.15727411 10.08,2.00000002 L10.08,21.6000001 L2.37000002,21.6000001 C1.5272741,21.6054548 0.84545472,22.2872742 0.840000012,23.1300001 L0.840000012,30.0000001 C0.84545472,30.842726 1.5272741,31.5245454 2.37000002,31.5300001 L35.6300001,31.5300001 C36.472726,31.5245454 37.1545454,30.842726 37.1600001,30.0000001 L37.1600001,23.1300001 C37.1545454,22.2872742 36.472726,21.6054548 35.6300001,21.6000001 Z M12.08,2.48000002 L25.9200001,2.48000002 L25.9200001,21.6000001 L12.08,21.6000001 L12.08,2.48000002 Z M35.1600001,29.4800001 L2.84000002,29.4800001 L2.84000002,23.6000001 L35.1600001,23.6000001 L35.1600001,29.4800001 Z" id="Shape"></path>
            <rect id="Rectangle" x="13.06" y="25.4600001" width="11.88" height="2"></rect>
        </g>
    </g>
</svg>