<?xml version="1.0" encoding="UTF-8"?>
<svg width="48px" height="48px" viewBox="0 0 48 48" version="1.1" xmlns="http://www.w3.org/2000/svg" xmlns:xlink="http://www.w3.org/1999/xlink">
    <title>ic_gen_48_manual</title>
    <g id="ic_gen_48_manual" stroke="none" stroke-width="1" fill="none" fill-rule="evenodd">
        <path d="M40.52,11.59 C41.2908201,11.5951734 41.9216881,12.1849761 41.9932407,12.9371647 L41.9999999,13.08 L41.9999999,34.92 C42.0004501,35.3276053 41.8338962,35.7175998 41.5391383,35.9991314 C41.2812251,36.2454715 40.9448607,36.3899491 40.5920371,36.4093907 L24.44,36.41 C24.2761765,36.4062438 24.1140566,36.3758463 23.96,36.32 C23.8572956,36.3572309 23.7510075,36.3831512 23.6430201,36.3974075 L23.48,36.41 L7.47999997,36.41 C6.70917987,36.4048266 6.07831176,35.8150239 6.00675918,35.0628353 L5.99999993,34.92 L5.99999993,13.08 C5.99999993,12.6795742 6.16101192,12.2959686 6.44696352,12.0156608 C6.69717117,11.7703914 7.02454514,11.6222742 7.37067873,11.5944783 L7.51999997,11.59 L40.52,11.59 Z M23,13.59 L7.99999997,13.59 L7.99999997,34.41 L23,34.41 L23,13.59 Z M40,13.59 L25,13.59 L25,34.41 L40,34.41 L40,13.59 Z M20.73,28.86 L20.73,30.86 L10.25,30.86 L10.25,28.86 L20.73,28.86 Z M37.74,28.86 L37.74,30.86 L27.26,30.86 L27.26,28.86 L37.74,28.86 Z M20.73,24.05 L20.73,26.05 L10.25,26.05 L10.25,24.05 L20.73,24.05 Z M37.74,24.05 L37.74,26.05 L27.26,26.05 L27.26,24.05 L37.74,24.05 Z M20.73,19.23 L20.73,21.23 L10.25,21.23 L10.25,19.23 L20.73,19.23 Z M37.74,19.23 L37.74,21.23 L27.26,21.23 L27.26,19.23 L37.74,19.23 Z" id="形状" fill="#000000" fill-rule="nonzero"></path>
    </g>
</svg>