<?xml version="1.0" encoding="UTF-8"?>
<svg width="48px" height="48px" viewBox="0 0 48 48" version="1.1" xmlns="http://www.w3.org/2000/svg" xmlns:xlink="http://www.w3.org/1999/xlink">
    <title>ic_gen_48_inspration</title>
    <g id="ic_gen_48_inspration" stroke="none" stroke-width="1" fill="none" fill-rule="evenodd">
        <g id="Group" transform="translate(8.000000, 5.000000)" fill="#000000" fill-rule="nonzero">
            <path d="M27.4000001,20.3800001 C27.5047317,19.5940714 27.1513324,18.8173696 26.4900001,18.38 L22.6200001,15.32 L22.9400001,10.4 C23.1157278,9.59596278 22.750945,8.77064266 22.03806,8.35936284 C21.325175,7.94808302 20.4280976,8.0454069 19.8200001,8.60000003 L15.72,11.34 L11.14,9.52000003 C10.4184991,9.15700314 9.55175988,9.24680045 8.92000004,9.75000003 C8.35759469,10.3263534 8.17840538,11.1755549 8.46000003,11.93 L9.80000004,16.67 L6.65000003,20.4600001 C6.03440419,21.0076081 5.84448164,21.8909014 6.18058882,22.6431412 C6.51669599,23.3953811 7.3013767,23.8432133 8.12000003,23.7500001 L11.84,23.9000001 L4.52000003,35.5000001 C4.37807575,35.7240989 4.33100364,35.9954044 4.38914214,36.2542145 C4.44728065,36.5130247 4.60586577,36.7381318 4.83000003,36.8800001 C5.05531229,37.0210214 5.32749832,37.0665378 5.58643359,37.0064948 C5.84536886,36.9464519 6.06974557,36.7857905 6.21000003,36.5600001 L13.61,24.8400001 L15.67,28.1200001 C16.022654,28.7733682 16.6887661,29.1972576 17.4300001,29.2400001 L17.6000001,29.2400001 C18.3949433,29.1105846 19.0404514,28.5276713 19.2500001,27.7500001 L21.0000001,23.0800001 L25.7800001,21.8700001 C26.5611876,21.7253632 27.1906734,21.1463916 27.4000001,20.3800001 Z M25.2500001,19.9300001 L19.4500001,21.4100001 L17.3800001,27.0000001 L17.3800001,27.0000001 L14.17,22.0000001 L8.17000003,21.7600001 L8.17000003,21.7600001 L12,17.11 L10.38,11.35 L10.38,11.35 L16.0000001,13.56 L21.0000001,10.24 L21.0000001,10.24 L20.6100001,16.24 L25.3100001,19.9500001 L25.3100001,19.9500001 L25.2500001,19.9300001 Z" id="Shape"></path>
            <path d="M15.24,6.39000002 L15.34,6.39000002 C15.6039475,6.36228638 15.8460524,6.23078516 16.0129867,6.02446193 C16.1799209,5.81813869 16.2579908,5.55391826 16.2300001,5.29000002 L15.88,1.90000001 C15.854766,1.63424578 15.7243231,1.38961249 15.5177156,1.22056994 C15.311108,1.05152739 15.0454887,0.97210973 14.78,1.00000001 C14.5160526,1.02771366 14.2739477,1.15921488 14.1070134,1.36553811 C13.9400792,1.57186134 13.8620093,1.83608177 13.89,2.10000001 L14.25,5.49000002 C14.3011593,5.99909256 14.7283498,6.38744753 15.24,6.39000002 L15.24,6.39000002 Z" id="Path"></path>
            <path d="M4.71000003,15.87 C5.26228477,15.9279899 5.75701012,15.5272848 5.81500001,14.975 C5.87298991,14.4227153 5.47228477,13.9279899 4.92000003,13.87 L1.59000002,13.16 C1.03771528,13.0440203 0.495979854,13.3977153 0.38000006,13.95 C0.264020265,14.5022848 0.617715289,15.0440202 1.17000002,15.16 L4.50000003,15.87 L4.71000003,15.87 Z" id="Path"></path>
            <path d="M25.3000001,25.6600001 C25.0674486,25.3704149 24.6935607,25.2335674 24.3290159,25.3046081 C23.964471,25.3756489 23.6693268,25.642874 23.5625284,25.99859 C23.4557301,26.354306 23.5548723,26.7399097 23.8200001,27.0000001 L26.1000001,29.5300001 C26.2890592,29.7394795 26.5578218,29.8593331 26.8400001,29.8600001 C27.0878359,29.8593531 27.3266018,29.7666977 27.5100001,29.6000001 C27.9177473,29.229523 27.9490478,28.5990415 27.5800001,28.1900001 L25.3000001,25.6600001 Z" id="Path"></path>
            <path d="M31.5300001,10.68 C31.4227185,10.4372133 31.2233134,10.2470393 30.9757179,10.1513774 C30.7281224,10.0557155 30.4526525,10.0624151 30.2100001,10.17 L27.1000001,11.56 C26.8572134,11.6672816 26.6670393,11.8666867 26.5713775,12.1142822 C26.4757156,12.3618777 26.4824151,12.6373476 26.5900001,12.88 C26.7525661,13.2416772 27.1134799,13.4731328 27.5100001,13.4700314 C27.6514949,13.4693447 27.7912399,13.4386689 27.9200001,13.38 L31.0000001,12 C31.2463728,11.8964849 31.4410632,11.6986642 31.5406359,11.450672 C31.6402085,11.2026797 31.6363784,10.92515 31.5300001,10.68 Z" id="Path"></path>
        </g>
    </g>
</svg>