<?xml version="1.0" encoding="UTF-8"?>
<svg width="36px" height="36px" viewBox="0 0 36 36" version="1.1" xmlns="http://www.w3.org/2000/svg" xmlns:xlink="http://www.w3.org/1999/xlink">
    <title>ic_gen_36_wifi_ful</title>
    <g id="ic_gen_36_wifi_ful" stroke="none" stroke-width="1" fill="none" fill-rule="evenodd">
        <path d="M6.7072,13.9709 C9.8882,10.7889 14.2082,8.9999 18.7072,8.9999 C23.2062,8.9999 27.5252,10.7889 30.7072,13.9709" id="Stroke-1" stroke="#000000" stroke-width="2"></path>
        <path d="M10.2311,17.4934 C12.4781,15.2464 15.5291,13.9824 18.7071,13.9824 C21.8851,13.9824 24.9361,15.2464 27.1831,17.4934" id="Stroke-3" stroke="#000000" stroke-width="2"></path>
        <path d="M14.0568,21.3244 C15.2898,20.0924 16.9638,19.3984 18.7068,19.3984 C20.4508,19.3984 22.1248,20.0924 23.3578,21.3244" id="Stroke-5" stroke="#000000" stroke-width="2"></path>
        <path d="M20.5744,24.8918 C20.5744,25.9228 19.7384,26.7588 18.7074,26.7588 C17.6764,26.7588 16.8394,25.9228 16.8394,24.8918 C16.8394,23.8608 17.6764,23.0238 18.7074,23.0238 C19.7384,23.0238 20.5744,23.8608 20.5744,24.8918" id="Fill-7" fill="#000000"></path>
    </g>
</svg>