<?xml version="1.0" encoding="UTF-8"?>
<svg width="36px" height="36px" viewBox="0 0 36 36" version="1.1" xmlns="http://www.w3.org/2000/svg" xmlns:xlink="http://www.w3.org/1999/xlink">
    <title>icon_general_36_starttime</title>
    <defs>
        <filter id="filter-1">
            <feColorMatrix in="SourceGraphic" type="matrix" values="0 0 0 0 0.000000 0 0 0 0 0.000000 0 0 0 0 0.000000 0 0 0 1.000000 0"></feColorMatrix>
        </filter>
    </defs>
    <g id="icon_general_36_starttime" stroke="none" stroke-width="1" fill="none" fill-rule="evenodd">
        <g filter="url(#filter-1)" id="meni">
            <g transform="translate(18.000000, 18.000000) rotate(-180.000000) translate(-18.000000, -18.000000) translate(8.000000, 7.000000)">
                <path d="M18.2800001,20 L17.11,20 L17.11,15.89 C17.1130494,13.9500794 16.177988,12.1283862 14.6,11 C16.189347,9.87816197 17.1361464,8.05538674 17.14,6.11000002 L17.14,2 L18.2800001,2 C18.8322848,2 19.2800001,1.55228475 19.2800001,1 C19.2800001,0.447715251 18.8322848,0 18.2800001,0 L1.72,0 C1.16771525,0 0.720000002,0.447715251 0.720000002,1 C0.720000002,1.55228475 1.16771525,2 1.72,2 L2.89000001,2 L2.89000001,6.11000002 C2.88695071,8.04992068 3.82201203,9.87161385 5.40000001,11 C3.81444081,12.124026 2.87155639,13.9464389 2.87000001,15.89 L2.87000001,20 L1.72,20 C1.16771525,20 0.720000002,20.4477153 0.720000002,21 C0.720000002,21.5522848 1.16771525,22 1.72,22 L18.2800001,22 C18.8322848,22 19.2800001,21.5522848 19.2800001,21 C19.2800001,20.4477153 18.8322848,20 18.2800001,20 Z M15.11,20 L4.87000001,20 L4.87000001,15.89 C4.87665546,14.0214152 6.17613431,12.406408 8.00000002,12 L8.00000002,10 C6.16088389,9.60005361 4.84936213,7.9721012 4.84999978,6.09000002 L4.84999978,2.00000001 L15.14,2.00000001 L15.14,6.11000002 C15.1322967,7.98158822 13.8278383,9.59762101 12,10 L12,12 C13.843091,12.3958766 15.1596204,14.0248734 15.16,15.91 L15.11,20 Z" id="Shape" fill="#231F20" fill-rule="nonzero"></path>
                <path d="M10,13 C8.2181227,12.8510803 6.61193661,14.0729907 6.28000002,15.83 C6.28000002,15.83 6.28000002,15.92 6.28000002,15.97 L6.28000002,17.64 C6.28000002,18.1922848 6.72771527,18.6400001 7.28000002,18.6400001 L12.74,18.6400001 C13.2922848,18.6400001 13.74,18.1922848 13.74,17.64 L13.74,15.83 C13.74,15.83 13.74,15.73 13.74,15.69 C13.3582577,13.9730747 11.7491735,12.8157387 10,13 Z" id="Path" fill="#231F20" fill-rule="nonzero"></path>
            </g>
        </g>
    </g>
</svg>