<?xml version="1.0" encoding="UTF-8"?>
<svg width="64px" height="64px" viewBox="0 0 64 64" version="1.1" xmlns="http://www.w3.org/2000/svg" xmlns:xlink="http://www.w3.org/1999/xlink">
    <title>icon_aplnc_64_hood</title>
    <g id="icon_aplnc_64_hood" stroke="none" stroke-width="1" fill="none" fill-rule="evenodd">
        <path d="M41.52,12.32 C42.3990048,12.32 43.1203385,12.9950702 43.1938334,13.8550431 L43.2,14 L43.2,39.5 L53.42,39.5 C53.8655637,39.5 54.2928783,39.6769995 54.6079394,39.9920606 C54.8836179,40.2677391 55.053593,40.6293616 55.0917792,41.0139527 L55.1,41.18 L55.1,50 C55.1,50.4455637 54.9230005,50.8728783 54.6079394,51.1879394 C54.332261,51.4636179 53.9706384,51.6335929 53.5860474,51.6717792 L53.42,51.68 L10.58,51.68 C9.70099518,51.68 8.97966151,51.0049298 8.90616657,50.1449569 L8.89999996,50 L8.89999996,41.18 C8.89999996,40.3009952 9.57507023,39.5796616 10.4350431,39.5061666 L10.58,39.5 L20.8,39.5 L20.8,14 C20.7998717,13.5474184 20.9823515,13.1139283 21.3061175,12.7976917 C21.5894128,12.5209847 21.9599106,12.354532 22.3512169,12.3244613 L22.52,12.32 L41.52,12.32 Z M53.1,41.5 L10.9,41.5 L10.9,49.7 L53.1,49.7 L53.1,41.5 Z M39.65,44.46 L39.65,46.46 L24.35,46.46 L24.35,44.46 L39.65,44.46 Z M41.2,14.3 L22.8,14.3 L22.8,39.5 L41.2,39.5 L41.2,14.3 Z" id="形状" fill="#000000" fill-rule="nonzero"></path>
    </g>
</svg>