<?xml version="1.0" encoding="UTF-8"?>
<svg width="36px" height="36px" viewBox="0 0 36 36" version="1.1" xmlns="http://www.w3.org/2000/svg" xmlns:xlink="http://www.w3.org/1999/xlink">
    <title>icon_hood_36_timesetting</title>
    <g id="icon_hood_36_timesetting" stroke="none" stroke-width="1" fill="none" fill-rule="evenodd">
        <path d="M18,5.93999997 C24.6605541,5.93999997 30.06,11.3394459 30.06,18 C30.0544859,24.6582688 24.6582688,30.0544859 18,30.06 C11.3394459,30.06 5.93999997,24.6605541 5.93999997,18 C5.93999997,11.3394459 11.3394459,5.93999997 18,5.93999997 Z M18,8.05999997 C12.5102896,8.05999997 8.05999997,12.5102896 8.05999997,18 C8.05999997,23.4897104 12.5102896,27.94 18,27.94 C23.4897104,27.94 27.94,23.4897104 27.94,18 C27.9072409,12.5239162 23.4760838,8.09275908 18,8.05999997 Z M19.06,12.51 L19.06,16.94 L23.49,16.94 L23.49,19.06 L16.94,19.06 L16.94,12.51 L19.06,12.51 Z" id="形状" fill="#1D1D1B" fill-rule="nonzero"></path>
    </g>
</svg>