<?xml version="1.0" encoding="UTF-8"?>
<svg width="36px" height="36px" viewBox="0 0 36 36" version="1.1" xmlns="http://www.w3.org/2000/svg" xmlns:xlink="http://www.w3.org/1999/xlink">
    <title>icon_general_36_remote_start_enabled</title>
    <defs>
        <polygon id="path-1" points="0.2851 0 6.806 0 6.806 6.521 0.2851 6.521"></polygon>
    </defs>
    <g id="icon_general_36_remote_start_enabled" stroke="none" stroke-width="1" fill="none" fill-rule="evenodd">
        <g id="Group-10" transform="translate(10.000000, 8.000000)">
            <path d="M4.7319,9.9087 C4.5819,9.7947 4.3779,9.7767 4.2089,9.8617 C4.0389,9.9467 3.9319,10.1187 3.9319,10.3087 L3.9319,14.8087 C3.9319,14.9977 4.0389,15.1707 4.2089,15.2557 C4.2789,15.2907 4.3559,15.3087 4.4319,15.3087 C4.5379,15.3087 4.6439,15.2747 4.7319,15.2087 L7.7319,12.9587 C7.8579,12.8647 7.9319,12.7157 7.9319,12.5587 C7.9319,12.4017 7.8579,12.2527 7.7319,12.1587 L4.7319,9.9087 Z" id="Fill-1" fill="#000000"></path>
            <g id="Group-5" transform="translate(9.000000, 0.000000)">
                <mask id="mask-2" fill="white">
                    <use xlink:href="#path-1"></use>
                </mask>
                <g id="Clip-4"></g>
                <path d="M0.2861,0 L0.2851,2 C2.7781,2.001 4.8061,4.029 4.8061,6.521 L6.8061,6.521 C6.8061,2.926 3.8811,0.001 0.2861,0" id="Fill-3" fill="#000000" mask="url(#mask-2)"></path>
            </g>
            <path d="M9.0356,2.5508 L9.0346,4.5508 C10.2596,4.5508 11.2556,5.5478 11.2556,6.7718 L13.2556,6.7718 C13.2556,4.4448 11.3626,2.5508 9.0356,2.5508" id="Fill-6" fill="#000000"></path>
            <path d="M2.0181,18 L2.7551,7.117 L8.6041,7.117 L9.3461,18 L2.0181,18 Z M8.8211,5.117 L2.5401,5.117 C1.5641,5.117 0.7701,5.912 0.7731,6.82 L0.0001,18.229 C0.0001,19.206 0.7941,20 1.7701,20 L9.5911,20 C10.5671,20 11.3621,19.206 11.3591085,18.162 L10.5911,6.888 C10.5911,5.912 9.7971,5.117 8.8211,5.117 L8.8211,5.117 Z" id="Fill-8" fill="#000000"></path>
        </g>
    </g>
</svg>