<?xml version="1.0" encoding="UTF-8"?>
<svg width="36px" height="36px" viewBox="0 0 36 36" version="1.1" xmlns="http://www.w3.org/2000/svg" xmlns:xlink="http://www.w3.org/1999/xlink">
    <title>icon_general_36_refresh</title>
    <g id="icon_general_36_refresh" stroke="none" stroke-width="1" fill="none" fill-rule="evenodd">
        <path d="M29.6,18 C29.5717144,22.6942757 26.7145566,26.9078865 22.3640049,28.6713276 C18.1123294,30.3946905 13.2550677,29.4453302 9.96683823,26.2747981 L9.73999998,26.05 L9.39999998,29.26 C9.37063855,29.7781686 8.97236188,30.1924943 8.46812387,30.2525451 L8.34999997,30.26 L8.22999997,30.26 C7.68850392,30.1965073 7.28793679,29.7386289 7.28455247,29.205319 L7.28999997,29.09 L7.99999997,22.34 L10.62,22.62 L14.73,23.05 C15.3126604,23.1135128 15.7335127,23.6373396 15.67,24.22 C15.6107214,24.7638164 15.1504581,25.16668 14.6156287,25.1663399 L14.5,25.16 L11.5,24.85 C13.2544683,26.5159791 15.5805718,27.4464205 18,27.45 C23.1300619,27.4446142 27.3072104,23.3644573 27.4654017,18.2690977 L27.47,18 L29.6,18 Z M27.5794007,5.78920485 L27.695,5.79499997 C28.2388164,5.8517012 28.64363,6.30984262 28.6457951,6.84440063 L28.64,6.95999997 L28.08,12.33 L28.08,12.38 L27.94,13.71 L25.3,13.43 L21.19,13 C20.5962939,12.9447715 20.1597715,12.4187061 20.215,11.825 C20.2665466,11.2708743 20.7282445,10.8536731 21.2722801,10.8454118 L21.39,10.85 L24.53,11.18 C21.7948447,8.56296291 17.762923,7.82843524 14.2805856,9.31278154 C10.8898887,10.7580661 8.65598544,14.0359882 8.53514818,17.701939 L8.52999997,18 L6.39999997,18 L6.40535996,17.68852 C6.54469432,13.1309931 9.34643345,9.06459149 13.5799468,7.31987085 C17.8112734,5.5760514 22.6617279,6.48581449 25.9716051,9.61788329 L26.2,9.83999998 L26.53,6.73999997 C26.5867013,6.19618358 27.0448427,5.79136996 27.5794007,5.78920485 Z" id="形状" fill="#000000" fill-rule="nonzero"></path>
    </g>
</svg>