<?xml version="1.0" encoding="UTF-8"?>
<svg width="36px" height="36px" viewBox="0 0 36 36" version="1.1" xmlns="http://www.w3.org/2000/svg" xmlns:xlink="http://www.w3.org/1999/xlink">
    <title>icon_general_36_endtime</title>
    <g id="icon_general_36_endtime" stroke="none" stroke-width="1" fill="none" fill-rule="evenodd">
        <path d="M26.2800001,7.00000002 C26.8322848,7.00000002 27.2800001,7.44771527 27.2800001,8.00000002 C27.2800001,8.51283586 26.8939599,8.93550718 26.3966212,8.99327229 L26.2800001,9.00000002 L25.1400001,9.00000002 L25.1400001,13.11 C25.1361464,15.0553868 24.189347,16.878162 22.6000001,18 C24.1093799,19.079326 25.0305243,20.7929819 25.105102,22.6376847 L25.1100001,22.8900001 L25.1100001,27 L26.2800001,27 C26.8322848,27 27.2800001,27.4477153 27.2800001,28 C27.2800001,28.5128359 26.8939599,28.9355072 26.3966212,28.9932723 L26.2800001,29 L9.72000002,29 C9.16771528,29 8.72000002,28.5522848 8.72000002,28 C8.72000002,27.4871642 9.10604022,27.0644929 9.6033789,27.0067278 L9.72000002,27 L10.87,27 L10.87,22.8900001 C10.8715564,20.9464389 11.8144408,19.124026 13.4,18 C11.8906202,16.9206741 10.9694758,15.2070182 10.8948981,13.3623154 L10.89,13.11 L10.89,9.00000002 L9.72000002,9.00000002 C9.16771528,9.00000002 8.72000002,8.55228477 8.72000002,8.00000002 C8.72000002,7.48716418 9.10604022,7.06449286 9.6033789,7.00672775 L9.72000002,7.00000002 L26.2800001,7.00000002 Z M23.1400001,9.00000003 L12.8499996,9.00000003 L12.8499996,13.09 C12.8493849,14.9048833 14.0688775,16.4834471 15.8050065,16.952494 L16,17 L16,19 C14.2412724,19.3918934 12.9701443,20.9075992 12.8756251,22.6908084 L12.87,22.8900001 L12.87,27 L23.1100001,27 L23.1600001,22.9100001 C23.159634,21.0921994 21.93545,19.5125602 20.1954232,19.0470894 L20.0000001,19 L20.0000001,17 C21.7625584,16.6119917 23.0384535,15.0954711 23.1342479,13.3095058 L23.1400001,13.11 L23.1400001,9.00000003 Z M18,20.0000001 C19.686703,19.8223195 21.2431444,20.892119 21.6944522,22.5082207 L21.7400001,22.6900001 L21.7400001,24.6400001 C21.7400001,25.1528359 21.3539599,25.5755072 20.8566212,25.6332723 L20.7400001,25.6400001 L15.28,25.6400001 C14.7671642,25.6400001 14.3444929,25.2539599 14.2867278,24.7566212 L14.28,24.6400001 L14.28,22.8300001 C14.6119366,21.0729907 16.2181227,19.8510803 18,20.0000001 Z" id="形状" fill="#000000" fill-rule="nonzero"></path>
    </g>
</svg>