<?xml version="1.0" encoding="UTF-8"?>
<svg width="60px" height="20px" viewBox="0 0 60 20" version="1.1" xmlns="http://www.w3.org/2000/svg" xmlns:xlink="http://www.w3.org/1999/xlink">
    <title>logo_hisense_s</title>
    <defs>
        <polygon id="path-1" points="0.123198715 0.0380802435 7.3588204 0.0380802435 7.3588204 5.97337153 0.123198715 5.97337153"></polygon>
    </defs>
    <g id="logo_hisense_s" stroke="none" stroke-width="1" fill="none" fill-rule="evenodd">
        <g id="Group-18" transform="translate(11.000000, 6.000000)">
            <path d="M31.9805725,4.13381577 L31.7412643,7.87837305 L33.9941587,7.87837305 L34.2358936,4.07501539 C34.343601,2.34740435 33.1216732,2.21972353 32.3134013,2.13590966 C32.2592676,2.13012296 31.8299316,2.09596274 31.2417411,2.09596274 C31.0894202,2.09596274 30.9272058,2.09801608 30.7582714,2.10380279 C29.3563957,2.15140309 27.6332647,2.34983103 27.6157179,2.35300438 L27.575771,2.35916442 L27.2224088,7.87837305 L29.4840766,7.87837305 L29.759225,3.39815773 C29.759225,3.39815773 30.6770709,3.28055698 31.1939542,3.31098384 C31.7110241,3.34103737 32.0199594,3.50213173 31.9798259,4.10320224" id="Fill-1" fill="#009A9D"></path>
            <path d="M6.66238127,-3.73335721e-05 L6.61366096,-3.73335721e-05 L6.61011427,0.048682978 L6.4008596,2.74416688 L2.866117,2.74416688 L3.04027811,0.500605868 C3.04587815,0.0182561168 2.63744887,-3.73335721e-05 2.43435424,-3.73335721e-05 L2.26840651,-3.73335721e-05 L2.26915318,-3.73335721e-05 L0.659516218,-3.73335721e-05 L0.610795906,-3.73335721e-05 L0.607062549,0.048682978 L0.00449869544,7.79539919 L1.8666786e-05,7.85214622 L0.0567656964,7.85214622 L2.42016748,7.85214622 L2.46926113,7.85214622 L2.47299448,7.80323924 L2.73899618,4.38199069 L6.27336545,4.38199069 L6.00829709,7.79539919 L6.00344373,7.85214622 L6.06075076,7.85214622 L8.41556582,7.85214622 L8.46428613,7.85214622 L8.46783282,7.80323924 L9.06946334,0.0565230281 L9.07394336,-3.73335721e-05 L9.01700967,-3.73335721e-05 L6.66238127,-3.73335721e-05 Z" id="Fill-3" fill="#009A9D"></path>
            <polygon id="Fill-5" fill="#009A9D" points="9.88594856 2.13880301 9.83741491 2.13880301 9.83368156 2.18752332 9.39855877 7.85214622 9.39370541 7.85214622 9.45082577 7.85214622 11.7615872 7.85214622 11.8106809 7.85214622 11.8142276 7.85214622 12.247857 2.19555004 12.2519637 2.13880301 12.1954033 2.13880301"></polygon>
            <path d="M11.882156,-3.73335721e-05 L10.059531,-3.73335721e-05 L10.0108107,-3.73335721e-05 L10.0070773,0.0565230281 L9.90198333,1.44122522 L9.89768997,1.49797225 L9.95462366,1.49797225 L12.2633318,1.49797225 L12.3124254,1.49797225 L12.3155988,1.44869193 C12.3155988,1.44869193 12.3742125,0.644340121 12.3833592,0.500605868 C12.4046393,0.164790387 12.2700518,-3.73335721e-05 11.882156,-3.73335721e-05" id="Fill-7" fill="#009A9D"></path>
            <path d="M17.1758512,4.45848718 L16.312139,4.09635153 C15.7075218,3.85368331 15.2511189,3.67466883 15.3306394,3.4250939 C15.3754397,3.28490634 15.6528281,3.19213241 16.4814467,3.19213241 C17.2279315,3.19213241 18.0582302,3.28285299 19.0201296,3.46280081 L19.0753833,3.47288088 L19.0807967,3.41818719 L19.1860774,2.33738028 L19.1911174,2.28921997 L19.1422104,2.27969991 C18.7683147,2.20727278 17.7629216,2.03703169 16.5210203,2.01089819 C16.4355264,2.00940485 16.3504059,2.00828484 16.2669654,2.00828484 C15.7898423,2.00828484 15.3414661,2.03703169 14.9345302,2.09247205 C14.1641519,2.1990594 12.8623303,2.53786156 12.7977432,3.61232177 C12.7307294,4.71291547 14.0465512,5.19377188 14.8505296,5.52772068 L15.5171206,5.79185571 C16.2770454,6.09649766 16.6375011,6.20756503 16.6221943,6.4324998 C16.6076342,6.64604784 16.3192324,6.69962151 15.6347213,6.69962151 C15.5494141,6.69962151 15.4598135,6.69850151 15.3664796,6.69663483 C14.5018341,6.67815471 13.2812129,6.49839356 12.82537,6.41999306 L12.7689963,6.41028633 L12.7656363,6.46647336 L12.6919025,7.63520083 L12.6883558,7.68336114 L12.7376361,7.69120119 C12.7467829,7.6928812 13.6539887,7.83586878 15.584881,7.88869578 C15.6989351,7.8914958 15.8126158,7.89298914 15.9257365,7.89298914 C17.3313455,7.89298914 19.0451431,7.67384108 19.2331177,6.50268692 C19.4054121,5.42972006 18.2762582,4.95073033 17.1758512,4.45848718" id="Fill-9" fill="#009A9D"></path>
            <path d="M21.942527,4.3729933 C22.0496743,3.77117612 22.514104,3.16151889 23.499337,3.15498551 C24.9346261,3.16711892 24.8401722,4.3729933 24.8401722,4.3729933 L21.942527,4.3729933 Z M26.7578111,5.45230687 C27.2422142,2.70119594 24.8030253,2.16527251 24.2314483,2.07865863 C24.0199536,2.05084512 23.7935255,2.032365 23.5471239,2.02788497 L23.5198704,2.02844497 C21.0935616,2.07305859 20.1398755,3.31794655 19.7657931,4.22851238 C19.7381662,4.29776615 19.647259,4.54416773 19.6078721,4.83947628 C19.6035787,4.87792986 19.599472,4.91675678 19.5959253,4.95838371 C19.5942453,4.9770505 19.5929386,4.99553061 19.5920053,5.0141974 C19.5376849,5.85662945 19.7712064,7.27343852 21.8092461,7.76064163 C21.9212469,7.7864018 22.0364209,7.81048195 22.1598084,7.83082875 C22.5807444,7.89373582 22.9079732,7.96317626 23.7220317,7.96317626 C25.1052406,7.96317626 25.9932196,7.75989496 26.371782,7.65050759 C26.4119156,7.39570596 26.4938628,6.87415596 26.5575165,6.47282006 C26.3708486,6.514447 25.2433748,6.7548752 24.0149136,6.7548752 C23.9759,6.7548752 23.9393131,6.75319519 23.9017929,6.75282185 C22.1917286,6.69420814 21.8514331,5.85513611 21.8490064,5.47022698 C21.8490064,5.47022698 21.8480731,5.46313361 21.8471397,5.45230687 L26.7578111,5.45230687 Z" id="Fill-11" fill="#009A9D"></path>
            <path d="M39.1539757,4.45848718 L38.2897035,4.09635153 C37.6854597,3.85368331 37.2292434,3.67466883 37.3087639,3.4250939 C37.3533776,3.28490634 37.6311393,3.19213241 38.4595713,3.19213241 C39.2058694,3.19213241 40.0365414,3.28285299 40.9982542,3.46280081 L41.0533212,3.47288088 L41.0591079,3.41818719 L41.1642019,2.33738028 L41.1688686,2.28921997 L41.120335,2.27969991 C40.7460659,2.20727278 39.7410462,2.03703169 38.4995182,2.01089819 C38.413651,2.00940485 38.3283438,2.00828484 38.2450899,2.00828484 C37.7679669,2.00828484 37.3195907,2.03703169 36.9126547,2.09247205 C36.1419031,2.1990594 34.8402681,2.53786156 34.7756811,3.61232177 C34.7086673,4.71291547 36.0244891,5.19377188 36.8286542,5.52772068 L37.4946851,5.79185571 C38.2549833,6.09649766 38.615439,6.20756503 38.6001322,6.4324998 C38.5857588,6.64604784 38.2971703,6.69962151 37.6130325,6.69962151 C37.5277253,6.69962151 37.4381248,6.69850151 37.3446042,6.69663483 C36.4805186,6.67815471 35.2593375,6.49839356 34.8034946,6.41999306 L34.7474942,6.41028633 L34.7435742,6.46647336 L34.6698404,7.63520083 L34.6664804,7.68336114 L34.7159474,7.69120119 C34.7245341,7.6928812 35.6322999,7.83586878 37.5631922,7.88869578 C37.676873,7.8914958 37.7907404,7.89298914 37.9038611,7.89298914 C39.3094701,7.89298914 41.0232677,7.67384108 41.2112422,6.50268692 C41.3835367,5.42972006 40.2541961,4.95073033 39.1539757,4.45848718" id="Fill-13" fill="#009A9D"></path>
            <g id="Group-17" transform="translate(41.440265, 1.989805)">
                <mask id="mask-2" fill="white">
                    <use xlink:href="#path-1"></use>
                </mask>
                <g id="Clip-16"></g>
                <path d="M2.48049853,2.38318857 C2.58764588,1.78137139 3.05207552,1.17171416 4.03730849,1.16518079 C5.47259767,1.1773142 5.37814373,2.38318857 5.37814373,2.38318857 L2.48049853,2.38318857 Z M7.29559599,3.46250214 C7.77999909,0.711391216 5.34099682,0.175467789 4.76923317,0.0888539016 C4.55792515,0.0610403904 4.33149703,0.0425602722 4.08509546,0.0380802435 L4.05765528,0.0386402471 C1.6315331,0.0832538658 0.677660334,1.32814183 0.303577941,2.23870765 C0.27576443,2.30796143 0.18504385,2.554363 0.145656932,2.84967156 C0.141176903,2.88812514 0.137256878,2.92695205 0.133710188,2.96857898 C0.132216846,2.98724577 0.130723503,3.00572589 0.129976831,3.02439268 C0.075469816,3.86682473 0.308991309,5.28363379 2.34703101,5.77083691 C2.45884506,5.79659707 2.57457913,5.82067723 2.69796659,5.84102402 C3.11871595,5.90393109 3.4459447,5.97337153 4.25962991,5.97337153 C5.64302542,5.97337153 6.53137777,5.77009023 6.90994019,5.66070287 C6.94988711,5.40590124 7.03164764,4.88435124 7.09530138,4.48301534 C6.90863352,4.52464227 5.78115964,4.76507047 4.55288512,4.76507047 C4.51387153,4.76507047 4.47728463,4.76339046 4.43939106,4.76301713 C2.72951346,4.70440342 2.38959128,3.86533139 2.38697793,3.48042226 C2.38697793,3.48042226 2.38585792,3.47332888 2.38529792,3.46250214 L7.29559599,3.46250214 Z" id="Fill-15" fill="#009A9D" mask="url(#mask-2)"></path>
            </g>
        </g>
    </g>
</svg>