<?xml version="1.0" encoding="UTF-8"?>
<svg width="48px" height="48px" viewBox="0 0 48 48" version="1.1" xmlns="http://www.w3.org/2000/svg" xmlns:xlink="http://www.w3.org/1999/xlink">
    <title>ic_48_hood_filter_alarm</title>
    <g id="ic_48_hood_filter_alarm" stroke="none" stroke-width="1" fill="none" fill-rule="evenodd">
        <path d="M34,8 C35.1045695,8 36,8.8954305 36,10 L36,36.6666667 C36,37.7712362 35.1045695,38.6666667 34,38.6666667 L27.3326667,38.666 L27.3326667,36.666 L34,36.6666667 L33.9996667,32.333 L12.6656667,32.333 L12.6666667,36.6666667 L19.3326667,36.666 L19.3326667,38.666 L12.6666667,38.6666667 C11.5620972,38.6666667 10.6666667,37.7712362 10.6666667,36.6666667 L10.6666667,10 C10.6666667,8.8954305 11.5620972,8 12.6666667,8 L34,8 Z M33.9996667,27 L12.6656667,27 L12.6656667,30.333 L33.9996667,30.333 L33.9996667,27 Z M33.9996667,21.666 L12.6656667,21.666 L12.6656667,25 L33.9996667,25 L33.9996667,21.666 Z M33.9996667,16.333 L12.6656667,16.333 L12.6656667,19.666 L33.9996667,19.666 L33.9996667,16.333 Z M34,10 L12.6666667,10 L12.6656667,14.333 L33.9996667,14.333 L34,10 Z" id="形状" fill="#000000" fill-rule="nonzero"></path>
    </g>
</svg>