<?xml version="1.0" encoding="UTF-8"?>
<svg width="48px" height="48px" viewBox="0 0 48 48" version="1.1" xmlns="http://www.w3.org/2000/svg" xmlns:xlink="http://www.w3.org/1999/xlink">
    <title>ic_aplnc_48_washer</title>
    <g id="ic_aplnc_48_washer" stroke="none" stroke-width="1" fill="none" fill-rule="evenodd">
        <path d="M38,5.83999996 C38.8427259,5.84545467 39.5245453,6.52727405 39.53,7.36999997 L39.53,40.63 C39.5245453,41.4727259 38.8427259,42.1545453 38,42.16 L9.99999997,42.16 C9.15727406,42.1545453 8.47545468,41.4727259 8.46999997,40.63 L8.46999997,7.36999997 C8.47545468,6.52727405 9.15727406,5.84545467 9.99999997,5.83999996 L38,5.83999996 Z M37.49,7.83999997 L10.49,7.83999997 L10.49,40.16 L37.49,40.16 L37.49,7.83999997 Z M24,15.08 C30.3844117,15.08 35.56,20.2555883 35.56,26.64 C35.5489908,33.019846 30.379846,38.1889908 24,38.2 C17.6155883,38.2 12.44,33.0244117 12.44,26.64 C12.44,20.2555883 17.6155883,15.08 24,15.08 Z M24,17.08 C18.7201578,17.08 14.44,21.3601578 14.44,26.64 C14.44,31.9198422 18.7201578,36.2 24,36.2 C29.2798422,36.2 33.56,31.9198422 33.56,26.64 C33.5544882,21.3624425 29.2775575,17.0855118 24,17.08 Z M24,18.38 C28.561872,18.38 32.26,22.078128 32.26,26.64 C32.2490053,31.1973101 28.5573101,34.8890053 24,34.9 C19.438128,34.9 15.74,31.201872 15.74,26.64 C15.74,22.078128 19.438128,18.38 24,18.38 Z M24,20.38 C20.5426975,20.38 17.74,23.1826975 17.74,26.64 C17.74,30.0973025 20.5426975,32.9 24,32.9 C27.4573025,32.9 30.26,30.0973025 30.26,26.64 C30.254494,23.1849807 27.4550193,20.385506 24,20.38 Z M35.5,12.43 L35.5,14.43 L12.5,14.43 L12.5,12.43 L35.5,12.43 Z M24.06,8.63999997 C24.8884271,8.63999997 25.56,9.31157284 25.56,10.14 C25.56,10.9684271 24.8884271,11.64 24.06,11.64 C23.2315729,11.64 22.56,10.9684271 22.56,10.14 C22.56,9.31157284 23.2315729,8.63999997 24.06,8.63999997 Z" id="形状" fill="#000000" fill-rule="nonzero"></path>
    </g>
</svg>