<?xml version="1.0" encoding="UTF-8"?>
<svg width="48px" height="48px" viewBox="0 0 48 48" version="1.1" xmlns="http://www.w3.org/2000/svg" xmlns:xlink="http://www.w3.org/1999/xlink">
    <title>ic_gen_48_refresh</title>
    <g id="ic_gen_48_refresh" stroke="none" stroke-width="1" fill="none" fill-rule="evenodd">
        <g id="Group" transform="translate(7.000000, 7.000000)" fill="#000000" fill-rule="nonzero">
            <path d="M25.9300001,9.08000003 C25.9484801,4.26208866 22.1257254,0.306291417 17.3100001,0.160000015 C16.9662913,0.144912245 16.6321889,0.27564797 16.39,0.520000016 C16.1402948,0.756727961 15.9992132,1.08591829 16,1.43000002 L16,11.35 C13.6441316,8.47680881 9.75534436,7.36257942 6.23538249,8.55220646 C2.71542062,9.74183349 0.299864484,12.9867159 0.170000015,16.7 C0.152629322,17.0391958 0.279810164,17.369866 0.520000016,17.6100001 C0.757413674,17.8587193 1.08615945,17.9996103 1.43000002,18.0000001 L11.35,18.0000001 C8.48027529,20.3591222 7.3685369,24.2471245 8.55729317,27.7667319 C9.74604945,31.2863392 12.9875496,33.7040242 16.7,33.8400001 L16.7,33.8400001 C17.0427907,33.8509 17.375213,33.7215949 17.6205393,33.48193 C17.8658656,33.2422651 18.0028952,32.9129518 18.0000001,32.5700001 L18.0000001,22.6500001 C20.3508097,25.5345241 24.2452786,26.6566681 27.7705196,25.4652569 C31.2957606,24.2738457 33.7110322,21.0192246 33.8300001,17.3000001 C33.8486538,16.9606011 33.7212785,16.6294251 33.4800001,16.39 C33.2425864,16.1412808 32.9138407,16.0003898 32.5700001,16 L22.6500001,16 C24.7340465,14.3084293 25.9400143,11.7641313 25.9300001,9.08000003 Z M2.23000002,16 C2.71841389,12.5922905 5.63746717,10.0617841 9.08000003,10.0617841 C12.5225329,10.0617841 15.4415862,12.5922905 15.93,16 L2.23000002,16 Z M16,31.7700001 C12.5922905,31.2815862 10.0617841,28.3625329 10.0617841,24.9200001 C10.0617841,21.4774672 12.5922905,18.5584139 16,18.0700001 L16,31.7700001 Z M31.7700001,18.0000001 C31.2815862,21.4077096 28.3625329,23.938216 24.9200001,23.938216 C21.4774672,23.938216 18.5584139,21.4077096 18.0700001,18.0000001 L31.7700001,18.0000001 Z M18.0000001,15.93 L18.0000001,2.23000002 C21.4077096,2.71841389 23.938216,5.63746717 23.938216,9.08000003 C23.938216,12.5225329 21.4077096,15.4415862 18.0000001,15.93 L18.0000001,15.93 Z" id="Shape"></path>
        </g>
    </g>
</svg>