<?xml version="1.0" encoding="UTF-8"?>
<svg width="48px" height="48px" viewBox="0 0 48 48" version="1.1" xmlns="http://www.w3.org/2000/svg" xmlns:xlink="http://www.w3.org/1999/xlink">
    <title>icon_general_48_service</title>
    <g id="icon_general_48_service" stroke="none" stroke-width="1" fill="none" fill-rule="evenodd">
        <path d="M27,12.58 C24.097987,9.73729289 19.9963463,8.48069932 16,9.20999997 C15.4481034,9.3026126 14.9946367,9.69665717 14.8259177,10.2302309 C14.6571987,10.7638046 14.8016808,11.3469239 15.2,11.74 L18.84,15.39 L17.43,20.61 L12.16,22 L8.46999997,18.39 C8.07299544,18.0253233 7.50997498,17.9035244 6.99774023,18.0715042 C6.48550547,18.2394841 6.10395039,18.6710425 5.99999996,19.2 C5.27587268,23.1620456 6.5472623,27.226753 9.39999997,30.07 C12.752873,33.3861374 17.6807478,34.5447286 22.16,33.07 L27.62,38.67 L29,37.29 L22.63,30.75 L22,31 C18.116698,32.5071093 13.7102644,31.5905711 10.75,28.66 C8.5912857,26.5306258 7.49186656,23.5511999 7.74999997,20.53 L11,23.64 C11.3733063,23.9934953 11.9024774,24.1295679 12.4,24 L18.24,22.45 C18.7561572,22.3093836 19.1593835,21.9061572 19.3,21.39 L20.87,15.61 C21.0086788,15.0917014 20.8599676,14.5388006 20.48,14.16 L17.35,11.03 C20.3919516,10.7743315 23.3939939,11.859011 25.57,14 C28.5181073,16.9186074 29.4320229,21.3187962 27.89,25.17 L27.64,25.78 L40.54,38.69 L42,37.28 L30,25.28 C31.5106821,20.8212852 30.3461498,15.8914317 27,12.58 L27,12.58 Z" id="Path" fill="#000000" fill-rule="nonzero"></path>
    </g>
</svg>