<?xml version="1.0" encoding="UTF-8"?>
<svg width="36px" height="36px" viewBox="0 0 36 36" version="1.1" xmlns="http://www.w3.org/2000/svg" xmlns:xlink="http://www.w3.org/1999/xlink">
    <title>icon_general_36_duration</title>
    <g id="icon_general_36_duration" stroke="none" stroke-width="1" fill="none" fill-rule="evenodd">
        <path d="M26.2800001,7.00000008 C26.8322848,7.00000008 27.2800001,7.44771527 27.2800001,8.00000008 C27.2800001,8.51283587 26.8939599,8.93550723 26.3966212,8.99327235 L26.2800001,9.00000008 L25.1300001,9.00000008 L25.1300001,13.11 C25.1284437,15.0535612 24.1855593,16.8759741 22.6000001,18.0000001 C24.1093799,19.079326 25.0305243,20.7929819 25.105102,22.6376847 L25.1100001,22.8900001 L25.1100001,27.0000001 L26.2800001,27.0000001 C26.8322848,27.0000001 27.2800001,27.4477153 27.2800001,28.0000001 C27.2800001,28.5128359 26.8939599,28.9355072 26.3966212,28.9932723 L26.2800001,29.0000001 L9.72000002,29.0000001 C9.16771528,29.0000001 8.72000002,28.5522848 8.72000002,28.0000001 C8.72000002,27.4871642 9.10604022,27.0644929 9.6033789,27.0067278 L9.72000002,27.0000001 L10.86,27.0000001 L10.86,22.8900001 C10.8638537,20.9446133 11.8106531,19.1218381 13.4,18.0000001 C11.8906202,16.9206741 10.9694758,15.2070182 10.8948981,13.3623154 L10.89,13.11 L10.89,9.00000008 L9.72000002,9.00000008 C9.16771528,9.00000008 8.72000002,8.55228477 8.72000002,8.00000008 C8.72000002,7.48716419 9.10604022,7.06449291 9.6033789,7.00672781 L9.72000002,7.00000008 L26.2800001,7.00000008 Z M23.1300001,9.00000007 L12.89,9.00000007 L12.84,13.09 C12.8403661,14.9078007 14.0645501,16.4874399 15.8045769,16.9529107 L16,17.0000001 L16,19.0000001 C14.2374417,19.3880084 12.9615466,20.904529 12.8657522,22.6904943 L12.86,22.8900001 L12.86,27.0000001 L23.1500005,27.0000001 L23.1500005,22.9100001 C23.1506152,21.0951168 21.9311226,19.516553 20.1949936,19.0475061 L20.0000001,19.0000001 L20.0000001,17.0000001 C21.7587277,16.6081067 23.0298558,15.0924009 23.124375,13.3091917 L23.1300001,13.11 L23.1300001,9.00000007 Z M18.0000001,20.0000001 C19.686703,19.8223195 21.2431444,20.892119 21.6944522,22.5082207 L21.7400001,22.6900001 L21.7400001,24.6400001 C21.7400001,25.1528359 21.3539599,25.5755072 20.8566212,25.6332723 L20.7400001,25.6400001 L15.28,25.6400001 C14.7671642,25.6400001 14.3444929,25.2539599 14.2867278,24.7566212 L14.28,24.6400001 L14.28,22.8300001 C14.6119366,21.0729907 16.2181227,19.8510803 18.0000001,20.0000001 Z M15.26,12.5531719 L20.7200001,12.5531719 L21.0360774,12.5497427 C21.4003469,12.5482359 21.671474,12.581783 21.7141322,12.9277046 L21.7200001,13.03 L21.7200001,13.17 C21.3880635,14.9270094 19.7818774,16.1489198 18.0000001,16 C16.3132971,16.1776806 14.7568557,15.1078811 14.3055479,13.4917794 L14.26,13.31 L14.26,13.03 C14.26,12.6249912 14.5007714,12.5575678 14.8469875,12.5504092 L15.26,12.5531719 Z" id="形状" fill="#000000" fill-rule="nonzero"></path>
    </g>
</svg>