<?xml version="1.0" encoding="UTF-8"?>
<svg width="36px" height="36px" viewBox="0 0 36 36" version="1.1" xmlns="http://www.w3.org/2000/svg" xmlns:xlink="http://www.w3.org/1999/xlink">
    <title>icon_general_36_light</title>
    <g id="icon_general_36_light" stroke="none" stroke-width="1" fill="none" fill-rule="evenodd">
        <path d="M17,27.13 C17.5315867,27.1886015 18.0669178,27.2024669 18.6003603,27.171568 L19,27.14 L19,29.45 C19,30.0022848 18.5522848,30.45 18,30.45 C17.4871642,30.45 17.0644928,30.0639598 17.0067277,29.5666212 L17,29.45 L17,27.13 Z M10.43,23.6 C10.7678852,24.0098555 11.1377542,24.3919745 11.5360263,24.7428021 L11.84,25 L10.22,26.64 C9.82996252,27.0277236 9.20003743,27.0277236 8.80999997,26.64 C8.45210127,26.2799654 8.4245706,25.7155296 8.72740797,25.3240486 L8.80999997,25.23 L10.43,23.6 Z M25.56,23.6 L27.19,25.22 C27.5777236,25.6100375 27.5777236,26.2399626 27.19,26.63 C26.8299655,26.9878987 26.2655296,27.0154294 25.8740486,26.712592 L25.78,26.63 L24.15,25 C24.5645127,24.6675664 24.9499047,24.3007355 25.3021213,23.9035333 L25.56,23.6 Z M20.3,5.54999997 C20.749826,5.54190944 21.1838887,5.71565649 21.503892,6.031895 C21.7838948,6.3086037 21.9558437,6.67392408 21.9926024,7.06232191 L22,7.22999997 L22,10.93 C24.9194048,12.7145975 26.2937725,16.2244901 25.3623861,19.5169409 C24.4548815,22.7249699 21.5746011,24.9621196 18.2623619,25.066259 L18,25.0700278 L17.75,25.0700278 C13.6415,24.9094298 10.3882782,21.5415959 10.37,17.43 C10.3813464,14.8957132 11.6594355,12.5419779 13.7629067,11.1505977 L14,11 L14,7.22999997 C13.9999921,6.78269823 14.1783636,6.35386117 14.4955909,6.03851102 C14.7731647,5.76257963 15.1369945,5.59347341 15.5232668,5.55729196 L15.69,5.54999997 L20.3,5.54999997 Z M20.02,7.53999997 L16.02,7.53999997 L16.02,11.54 C16.0189855,11.8747184 15.8509091,12.1837051 15.5773914,12.3672468 L15.47,12.43 L15.57,12.43 C13.2211342,13.5915053 11.9816238,16.2177619 12.57803,18.7693427 C13.1744362,21.3209235 15.4496441,23.1256503 18.07,23.1256503 C20.6903559,23.1256503 22.9655638,21.3209235 23.56197,18.7693427 C24.1583762,16.2177619 22.9188658,13.5915053 20.57,12.43 C20.2710848,12.2793775 20.0699083,11.9908459 20.0280911,11.6641185 L20.02,11.54 L20.02,7.53999997 Z M8.30999997,16.45 C8.25671715,16.9821461 8.24820566,17.5175891 8.28443732,18.0506959 L8.31999997,18.45 L5.99999996,18.45 C5.44771522,18.45 4.99999996,18.0022847 4.99999996,17.45 C4.99999996,16.9371642 5.38604016,16.5144928 5.88337884,16.4567277 L5.99999996,16.45 L8.30999997,16.45 Z M30,16.45 C30.5522848,16.45 31,16.8977152 31,17.45 C31,17.9628358 30.6139598,18.3855072 30.1166212,18.4432723 L30,18.45 L27.68,18.45 C27.7319532,17.9179319 27.7423439,17.3828272 27.711172,16.8495445 L27.68,16.45 L30,16.45 Z" id="形状" fill="#000000"></path>
    </g>
</svg>