<?xml version="1.0" encoding="UTF-8"?>
<svg width="24px" height="24px" viewBox="0 0 24 24" version="1.1" xmlns="http://www.w3.org/2000/svg" xmlns:xlink="http://www.w3.org/1999/xlink">
    <title>icon_general_fav_add</title>
    <g id="icon_general_fav_add" stroke="none" stroke-width="1" fill="none" fill-rule="evenodd">
        <path d="M7.0439,4.9987 C6.8709,4.9987 6.7049,5.0147 6.5479,5.0447 C4.9999,5.3427 3.9999,6.8357 3.9999,8.8487 C3.9999,12.7867 9.3549,17.0907 11.9949,18.8117 C13.8349,17.5937 19.9999,13.1877 19.9999,8.8487 C19.9999,6.8357 18.9999,5.3427 17.4509,5.0447 C16.1069,4.7887 14.1269,5.5567 12.9289,8.5577 C12.7769,8.9377 12.4089,9.1867 11.9999,9.1867 C11.5909,9.1867 11.2229,8.9377 11.0709,8.5587 C10.0129,5.9067 8.3409,4.9987 7.0439,4.9987 M11.4819,20.8517 C11.0959,20.6177 1.9999,15.0507 1.9999,8.8487 C1.9999,5.8777 3.6759,3.5607 6.1709,3.0807 C7.9109,2.7497 10.2979,3.3857 11.9999,6.0017 C13.7039,3.3847 16.0949,2.7507 17.8279,3.0807 C20.3229,3.5607 21.9999,5.8777 21.9999,8.8487 C21.9999,15.0507 12.9039,20.6177 12.5179,20.8517 C12.3579,20.9477 12.1789,20.9957 11.9999,20.9957 C11.8209,20.9957 11.6419,20.9477 11.4819,20.8517 Z" id="Fill-1" fill="#000000"></path>
    </g>
</svg>