<?xml version="1.0" encoding="UTF-8"?>
<svg width="48px" height="48px" viewBox="0 0 48 48" version="1.1" xmlns="http://www.w3.org/2000/svg" xmlns:xlink="http://www.w3.org/1999/xlink">
    <title>icon_general_48_preference</title>
    <g id="icon_general_48_preference" stroke="none" stroke-width="1" fill="none" fill-rule="evenodd">
        <path d="M20.25,30.79 C22.295837,30.7938305 24.0764369,32.1635532 24.6168848,34.1183538 L24.67,34.33 L40.5,34.33 L40.5,36.33 L24.67,36.33 C24.2193779,38.325596 22.4937854,39.7640003 20.4681375,39.8643986 L20.25,39.87 L18.83,39.87 C16.784163,39.8661695 15.0035631,38.4964469 14.4631152,36.5416462 L14.41,36.33 L7.91999997,36.33 L7.91999997,34.33 L14.41,34.33 C14.8606221,32.334404 16.5862145,30.8959998 18.6118625,30.7956015 L18.83,30.79 L20.25,30.79 Z M20.25,32.79 L18.83,32.79 C17.4271968,32.79 16.2900001,33.9271968 16.2900001,35.33 C16.2900001,36.6766911 17.3380405,37.7785993 18.6629943,37.8645973 L18.83,37.87 L20.25,37.87 C21.6528032,37.87 22.7900001,36.7328032 22.7900001,35.33 C22.7900001,33.9833089 21.7419595,32.8814007 20.4170057,32.7954028 L20.25,32.79 Z M33.14,19.42 C35.1974453,19.4278622 36.9822797,20.816305 37.5084823,22.7866962 L37.56,23 L40.5,23 L40.5,25 L37.56,25 C37.1093779,26.995596 35.3837855,28.4340002 33.3581375,28.5343985 L33.14,28.54 L31.72,28.54 C29.674163,28.5361695 27.8935631,27.1664468 27.3531152,25.2116462 L27.3,25 L7.91999997,25 L7.91999997,23 L27.3,23 C27.7383193,20.9910775 29.4654067,19.5351837 31.5007884,19.426458 L31.72,19.42 L33.14,19.42 Z M33.14,21.42 L31.72,21.42 C30.3171967,21.42 29.18,22.5571967 29.18,23.96 C29.18,25.3066911 30.2280405,26.4085993 31.5529943,26.4945972 L31.72,26.5 L33.14,26.5 C34.5428033,26.5 35.68,25.3628033 35.68,23.96 C35.68,22.6133089 34.6319595,21.5114007 33.3070057,21.4254028 L33.14,21.42 Z M12.46,8.12999997 C14.505837,8.13383047 16.2864369,9.50355314 16.8268847,11.4583538 L16.88,11.67 L40.5,11.67 L40.5,13.67 L16.84,13.67 C16.3893779,15.665596 14.6637854,17.1040002 12.6381374,17.2043985 L12.42,17.21 L11,17.21 C8.4926272,17.21 6.45999996,15.1773727 6.45999996,12.67 C6.45999996,10.2342664 8.37813636,8.24653764 10.7862813,8.13494149 L11,8.12999997 L12.46,8.12999997 Z M12.42,10.13 L11,10.13 C9.59719671,10.13 8.45999997,11.2671967 8.45999997,12.67 C8.45999997,14.0166911 9.50804048,15.1185993 10.8329943,15.2045972 L11,15.21 L12.42,15.21 C13.8228032,15.21 14.96,14.0728032 14.96,12.67 C14.96,11.3233088 13.9119595,10.2214007 12.5870057,10.1354027 L12.42,10.13 Z" id="形状" fill="#000000" fill-rule="nonzero"></path>
    </g>
</svg>