<?xml version="1.0" encoding="UTF-8"?>
<svg width="60px" height="20px" viewBox="0 0 60 20" version="1.1" xmlns="http://www.w3.org/2000/svg" xmlns:xlink="http://www.w3.org/1999/xlink">
    <title>logo_gorenje</title>
    <g id="logo_gorenje" stroke="none" stroke-width="1" fill="none" fill-rule="evenodd">
        <path d="M3.11111112,7.58138013 C4.00842107,7.58138013 4.66807019,7.92477194 5.09941523,8.5151813 L5.12888891,8.5151813 L5.12888891,7.77600001 L6.96280705,7.77600001 L6.96280705,14.2859416 C6.96280705,15.2754152 6.64187137,15.9481638 6.10994155,16.4286316 C5.50596494,16.9788071 4.58245616,17.2253568 3.51672516,17.2253568 C1.55508773,17.2253568 0.350877194,16.4010293 0.154385966,15.027462 L2.04678363,15.027462 C2.19929825,15.4667603 2.60678364,15.8096843 3.48865499,15.8096843 C4.56795324,15.8096843 5.0849123,15.3025498 5.0849123,14.3406784 L5.0849123,13.5720234 L5.04467838,13.5720234 C4.62456142,14.0379883 4.07812867,14.3954152 3.16678364,14.3954152 C1.56865498,14.3954152 0,13.158924 0,11.030269 C0,8.92828072 1.28935673,7.58138013 3.11111112,7.58138013 Z M36.5505031,7.77609358 L36.5505031,15.0953919 C36.5505031,15.9211229 36.3844212,16.3337544 36.0747136,16.6341053 C35.7098013,17.0060351 35.150737,17.1426433 34.5350645,17.1426433 C34.1832516,17.1426433 33.7481639,17.1159767 33.4548305,17.0603041 L33.4548305,15.7283743 L33.7273909,15.7195649 C34.3243993,15.6883451 34.6464095,15.5657427 34.6464095,15.0004211 L34.6464095,7.77609358 L36.5505031,7.77609358 Z M23.0473919,7.58119299 C25.3131229,7.58119299 26.5229475,9.31359066 26.5229475,11.8272749 L21.412772,11.8272749 C21.5512516,12.9117193 22.1552282,13.5844679 23.2116024,13.5844679 C23.9409592,13.5844679 24.3657545,13.2551111 24.5716024,12.7194386 L26.4134738,12.7194386 C26.152889,13.9704328 25.0394387,15.0272749 23.2256375,15.0272749 C20.8906668,15.0272749 19.5723042,13.3935907 19.5723042,11.2911345 C19.5723042,9.20411698 20.9865732,7.58119299 23.0473919,7.58119299 Z M40.754854,7.58119299 C43.0196493,7.58119299 44.2294739,9.31359066 44.2294739,11.8272749 L39.1202341,11.8272749 C39.2563744,12.9117193 39.8612867,13.5844679 40.9190645,13.5844679 C41.6474856,13.5844679 42.0732165,13.2551111 42.2790645,12.7194386 L44.1200002,12.7194386 C43.8584797,13.9704328 42.7459651,15.0272749 40.9330996,15.0272749 C38.5981288,15.0272749 37.2788306,13.3935907 37.2788306,11.2911345 C37.2788306,9.20411698 38.6930996,7.58119299 40.754854,7.58119299 Z M11.2013568,7.58156726 C13.4282574,7.58156726 14.9552749,9.20402341 14.9552749,11.305076 C14.9552749,13.4070644 13.4282574,15.0276492 11.2013568,15.0276492 C8.97305267,15.0276492 7.44603512,13.4061287 7.44603512,11.305076 C7.44603512,9.20215206 8.97305267,7.58156726 11.2013568,7.58156726 Z M31.1693101,7.58128656 C32.652351,7.58128656 33.6483744,8.68116961 33.6483744,10.2208187 L33.6483744,14.8215205 L31.7433452,14.8215205 L31.7433452,10.4949708 C31.7433452,9.7403509 31.2946902,9.2023392 30.495158,9.2023392 C29.6553919,9.2023392 29.0397194,9.86245616 29.0397194,10.8252632 L29.0397194,14.8215205 L27.1342223,14.8215205 L27.1342223,7.77450294 L28.9957428,7.77450294 L28.9957428,8.73497078 L29.0397194,8.73497078 C29.529544,7.98081873 30.1873218,7.58128656 31.1693101,7.58128656 Z M19.1930293,7.69099416 C19.3998129,7.69099416 19.5284679,7.70549709 19.6398129,7.74760235 L19.6398129,9.38081873 L19.5986434,9.38081873 C18.3504562,9.2577778 17.4531463,9.90385967 17.4531463,11.3873684 L17.4531463,14.8217544 L15.5490527,14.8217544 L15.5490527,7.77473685 L17.3839065,7.77473685 L17.3839065,8.90035089 L17.4250761,8.90035089 C17.8610995,8.10456142 18.3504562,7.69099416 19.1930293,7.69099416 Z M11.2013568,8.99723978 C10.0247486,8.99723978 9.37960238,9.93150879 9.37960238,11.305076 C9.37960238,12.6786433 10.0247486,13.5988772 11.2013568,13.5988772 C12.3648655,13.5988772 13.0226433,12.6786433 13.0226433,11.305076 C13.0226433,9.93150879 12.3648655,8.99723978 11.2013568,8.99723978 Z M3.47508773,9.07985967 C2.50807019,9.07985967 1.86292398,9.82184797 1.86292398,11.0021989 C1.86292398,12.1975205 2.50713451,12.8992749 3.48865499,12.8992749 C4.69473686,12.8992749 5.18456143,12.0314386 5.18456143,10.9886316 C5.18456143,9.95752049 4.62456142,9.07985967 3.47508773,9.07985967 Z M23.0754621,9.02493569 C22.0859884,9.02493569 21.6064562,9.61534505 21.4408422,10.5360468 L24.5716024,10.5360468 C24.5182691,9.64247955 23.9273919,9.02493569 23.0754621,9.02493569 Z M40.7810528,9.02493569 C39.7925148,9.02493569 39.3120469,9.61534505 39.1473686,10.5360468 L42.2790645,10.5360468 C42.2229242,9.64247955 41.6329826,9.02493569 40.7810528,9.02493569 Z M36.5505031,4.99995322 L36.5505031,6.67527486 L34.6464095,6.67527486 L34.6464095,4.99995322 L36.5505031,4.99995322 Z" id="形状" fill="#4C5C65"></path>
    </g>
</svg>